<svg xmlns="http://www.w3.org/2000/svg" width="176" height="176" viewBox="0 0 176 176"><defs><style>.a{fill:#333;opacity:0.147;}</style></defs><path class="a" d="M168,172a4,4,0,1,1,4,4A4,4,0,0,1,168,172Zm-24,0a4,4,0,1,1,4,4A4,4,0,0,1,144,172Zm-24,0a4,4,0,1,1,4,4A4,4,0,0,1,120,172Zm-24,0a4,4,0,1,1,4,4A4,4,0,0,1,96,172Zm-24,0a4,4,0,1,1,4,4A4,4,0,0,1,72,172Zm-24,0a4,4,0,1,1,4,4A4,4,0,0,1,48,172Zm-24,0a4,4,0,1,1,4,4A4,4,0,0,1,24,172ZM0,172a4,4,0,1,1,4,4A4,4,0,0,1,0,172Zm168-24a4,4,0,1,1,4,4A4,4,0,0,1,168,148Zm-24,0a4,4,0,1,1,4,4A4,4,0,0,1,144,148Zm-24,0a4,4,0,1,1,4,4A4,4,0,0,1,120,148Zm-24,0a4,4,0,1,1,4,4A4,4,0,0,1,96,148Zm-24,0a4,4,0,1,1,4,4A4,4,0,0,1,72,148Zm-24,0a4,4,0,1,1,4,4A4,4,0,0,1,48,148Zm-24,0a4,4,0,1,1,4,4A4,4,0,0,1,24,148ZM0,148a4,4,0,1,1,4,4A4,4,0,0,1,0,148Zm168-24a4,4,0,1,1,4,4A4,4,0,0,1,168,124Zm-24,0a4,4,0,1,1,4,4A4,4,0,0,1,144,124Zm-24,0a4,4,0,1,1,4,4A4,4,0,0,1,120,124Zm-24,0a4,4,0,1,1,4,4A4,4,0,0,1,96,124Zm-24,0a4,4,0,1,1,4,4A4,4,0,0,1,72,124Zm-24,0a4,4,0,1,1,4,4A4,4,0,0,1,48,124Zm-24,0a4,4,0,1,1,4,4A4,4,0,0,1,24,124ZM0,124a4,4,0,1,1,4,4A4,4,0,0,1,0,124Zm168-24a4,4,0,1,1,4,4A4,4,0,0,1,168,100Zm-24,0a4,4,0,1,1,4,4A4,4,0,0,1,144,100Zm-24,0a4,4,0,1,1,4,4A4,4,0,0,1,120,100Zm-24,0a4,4,0,1,1,4,4A4,4,0,0,1,96,100Zm-24,0a4,4,0,1,1,4,4A4,4,0,0,1,72,100Zm-24,0a4,4,0,1,1,4,4A4,4,0,0,1,48,100Zm-24,0a4,4,0,1,1,4,4A4,4,0,0,1,24,100ZM0,100a4,4,0,1,1,4,4A4,4,0,0,1,0,100ZM168,76a4,4,0,1,1,4,4A4,4,0,0,1,168,76Zm-24,0a4,4,0,1,1,4,4A4,4,0,0,1,144,76Zm-24,0a4,4,0,1,1,4,4A4,4,0,0,1,120,76ZM96,76a4,4,0,1,1,4,4A4,4,0,0,1,96,76ZM72,76a4,4,0,1,1,4,4A4,4,0,0,1,72,76ZM48,76a4,4,0,1,1,4,4A4,4,0,0,1,48,76ZM24,76a4,4,0,1,1,4,4A4,4,0,0,1,24,76ZM0,76a4,4,0,1,1,4,4A4,4,0,0,1,0,76ZM168,52a4,4,0,1,1,4,4A4,4,0,0,1,168,52Zm-24,0a4,4,0,1,1,4,4A4,4,0,0,1,144,52Zm-24,0a4,4,0,1,1,4,4A4,4,0,0,1,120,52ZM96,52a4,4,0,1,1,4,4A4,4,0,0,1,96,52ZM72,52a4,4,0,1,1,4,4A4,4,0,0,1,72,52ZM48,52a4,4,0,1,1,4,4A4,4,0,0,1,48,52ZM24,52a4,4,0,1,1,4,4A4,4,0,0,1,24,52ZM0,52a4,4,0,1,1,4,4A4,4,0,0,1,0,52ZM168,28a4,4,0,1,1,4,4A4,4,0,0,1,168,28Zm-24,0a4,4,0,1,1,4,4A4,4,0,0,1,144,28Zm-24,0a4,4,0,1,1,4,4A4,4,0,0,1,120,28ZM96,28a4,4,0,1,1,4,4A4,4,0,0,1,96,28ZM72,28a4,4,0,1,1,4,4A4,4,0,0,1,72,28ZM48,28a4,4,0,1,1,4,4A4,4,0,0,1,48,28ZM24,28a4,4,0,1,1,4,4A4,4,0,0,1,24,28ZM0,28a4,4,0,1,1,4,4A4,4,0,0,1,0,28ZM168,4a4,4,0,1,1,4,4A4,4,0,0,1,168,4ZM144,4a4,4,0,1,1,4,4A4,4,0,0,1,144,4ZM120,4a4,4,0,1,1,4,4A4,4,0,0,1,120,4ZM96,4a4,4,0,1,1,4,4A4,4,0,0,1,96,4ZM72,4a4,4,0,1,1,4,4A4,4,0,0,1,72,4ZM48,4a4,4,0,1,1,4,4A4,4,0,0,1,48,4ZM24,4a4,4,0,1,1,4,4A4,4,0,0,1,24,4ZM0,4A4,4,0,1,1,4,8,4,4,0,0,1,0,4Z"/></svg>