<svg xmlns="http://www.w3.org/2000/svg" width="470.339" height="470.339" viewBox="0 0 470.339 470.339"><defs><style>.a{fill:#eee;fill-rule:evenodd;}</style></defs><g transform="translate(-808.881 -837.794) rotate(8)"><g transform="translate(975 709)"><path class="a" d="M487.187,35.432c115,0,208.219,93.219,208.219,208.216s-93.223,208.22-208.219,208.22-208.216-93.223-208.216-208.22S372.19,35.432,487.187,35.432Zm0,2.122c113.823,0,206.093,92.271,206.093,206.093S601.009,449.741,487.187,449.741,281.1,357.47,281.1,243.648,373.364,37.554,487.187,37.554Z" transform="translate(-278.971 -35.432)"/><path class="a" d="M458.145,45.269A169.339,169.339,0,1,1,288.808,214.606,169.338,169.338,0,0,1,458.145,45.269Zm0,3.948A165.39,165.39,0,1,1,292.756,214.606,165.389,165.389,0,0,1,458.145,49.217Z" transform="translate(-249.929 -6.39)"/><path class="a" d="M431.373,54.337a133.5,133.5,0,1,1-133.5,133.5,133.495,133.495,0,0,1,133.5-133.5Zm0,5.166A128.332,128.332,0,1,1,303.042,187.834,128.333,128.333,0,0,1,431.373,59.5Z" transform="translate(-223.158 20.381)"/><path class="a" d="M406.187,62.868a99.78,99.78,0,1,1-99.78,99.78,99.777,99.777,0,0,1,99.78-99.78Zm0,8.735a91.045,91.045,0,1,1-91.045,91.045A91.045,91.045,0,0,1,406.187,71.6Z" transform="translate(-197.971 45.568)"/><path class="a" d="M376.517,72.918a60.059,60.059,0,1,1-60.059,60.059,60.06,60.06,0,0,1,60.059-60.059Zm0,8.735a51.325,51.325,0,1,1-51.325,51.325,51.328,51.328,0,0,1,51.325-51.325Z" transform="translate(-168.301 75.238)"/><path class="a" d="M346.719,83.011A20.171,20.171,0,1,1,326.55,103.18a20.168,20.168,0,0,1,20.169-20.169Zm0,6.96a13.211,13.211,0,1,1-13.213,13.209,13.207,13.207,0,0,1,13.213-13.209Z" transform="translate(-138.503 105.036)"/></g></g></svg>