<svg xmlns="http://www.w3.org/2000/svg" width="235.358" height="235.358" viewBox="0 0 235.358 235.358"><defs><style>.a{fill:#16b4e4;fill-rule:evenodd;}</style></defs><g transform="translate(29.002) rotate(8)"><g transform="translate(0 0)"><path class="a" d="M104.191,0A104.192,104.192,0,1,1,0,104.191,104.192,104.192,0,0,1,104.191,0Zm0,1.062A103.129,103.129,0,1,1,1.064,104.191,103.129,103.129,0,0,1,104.191,1.062Z"/><path class="a" d="M84.736,0A84.737,84.737,0,1,1,0,84.736,84.737,84.737,0,0,1,84.736,0Zm0,1.976a82.761,82.761,0,1,1-82.76,82.76,82.761,82.761,0,0,1,82.76-82.76Z" transform="translate(19.455 19.455)"/><path class="a" d="M66.8,0A66.8,66.8,0,1,1,0,66.8,66.8,66.8,0,0,1,66.8,0Zm0,2.585A64.217,64.217,0,1,1,2.585,66.8,64.218,64.218,0,0,1,66.8,2.585Z" transform="translate(37.389 37.389)"/><path class="a" d="M49.93,0A49.93,49.93,0,1,1,0,49.93,49.929,49.929,0,0,1,49.93,0Zm0,4.371A45.559,45.559,0,1,1,4.371,49.93,45.559,45.559,0,0,1,49.93,4.371Z" transform="translate(54.261 54.261)"/><path class="a" d="M30.054,0A30.054,30.054,0,1,1,0,30.054,30.054,30.054,0,0,1,30.054,0Zm0,4.371A25.683,25.683,0,1,1,4.371,30.054,25.685,25.685,0,0,1,30.054,4.371Z" transform="translate(74.138 74.138)"/><path class="a" d="M10.093,0A10.093,10.093,0,1,1,0,10.092,10.092,10.092,0,0,1,10.093,0Zm0,3.483a6.611,6.611,0,1,1-6.612,6.61,6.609,6.609,0,0,1,6.612-6.61Z" transform="translate(94.099 94.099)"/></g></g></svg>