<svg xmlns="http://www.w3.org/2000/svg" width="65.226" height="63.836" viewBox="0 0 65.226 63.836"><defs><style>.a{fill:#fff;}</style></defs><g transform="translate(-180.828 -88.452)"><g transform="translate(180.828 93.618)"><path class="a" d="M241.792,136.547h-4.051a12.685,12.685,0,0,0-11.519-7.266h-4.176v-3.8l3.095-3.094a3.028,3.028,0,0,0,1.257.277,3.057,3.057,0,1,0-3.058-3.057,3.02,3.02,0,0,0,.335,1.363l-3.668,3.667v4.647H214.46v-7.7l3.482-2.734v-3.831a3.058,3.058,0,1,0-2.038,0v2.837l-3.483,2.734v8.7h-4.152v-4.9l-3.586-3.585a3.135,3.135,0,1,0-1.387,1.5l2.934,2.933v4.058H200.66a12.685,12.685,0,0,0-11.519,7.266H185.09a4.259,4.259,0,0,0-.287,8.508,22.325,22.325,0,0,0-2.826,10.883v9.417a2.39,2.39,0,0,0,2.388,2.388h6.157a2.39,2.39,0,0,0,2.388-2.388v-1.374L214.46,164v-.006c3.17-.007,13.2-.009,19.512-.009v1.389a2.39,2.39,0,0,0,2.388,2.388h6.157a2.39,2.39,0,0,0,2.388-2.388v-9.431a22.321,22.321,0,0,0-2.826-10.883,4.259,4.259,0,0,0-.286-8.508ZM226.4,118.586a1.02,1.02,0,0,1,1.019,1.019,1.009,1.009,0,0,1-1.019,1.019,1.019,1.019,0,1,1,0-2.038Zm-9.478-7.461a1.02,1.02,0,0,1,1.019,1.019,1.009,1.009,0,0,1-1.019,1.019,1.019,1.019,0,0,1,0-2.038Zm-15.052,9.5a1.019,1.019,0,1,1,1.019-1.019A1.02,1.02,0,0,1,201.867,120.624Zm-1.207,10.7h25.562c6.251,0,9.531,4.221,11.209,10.2l1.3,2.013H223.263l-2.152-2.028,5.085-4.864a1.019,1.019,0,1,0-1.409-1.473l-5.86,5.605a1.019,1.019,0,0,0,.006,1.478l1.36,1.282h-13.7l1.36-1.282a1.019,1.019,0,0,0,.006-1.478l-5.86-5.605a1.019,1.019,0,1,0-1.409,1.473l5.085,4.864-2.152,2.028H188.172l1.146-1.724C190.375,138.708,192.207,131.32,200.66,131.32Zm-17.794,9.5a2.229,2.229,0,0,1,2.223-2.237h3.2c-.215.564-.556,1.533-.758,2.229l-1.484,2.231h-.959A2.226,2.226,0,0,1,182.866,140.823Zm60,24.547a.354.354,0,0,1-.349.349H236.36a.354.354,0,0,1-.349-.349v-3.428h-1.019l-20.627.009c-.34,0-.653,0-.922.031l-22.571-.041v3.415a.349.349,0,0,1-.349.349h-6.157a.349.349,0,0,1-.349-.349v-9.417a20.286,20.286,0,0,1,2.848-10.366h53.155a20.282,20.282,0,0,1,2.848,10.366Zm-1.074-22.324h-.959l-1.484-2.231c-.2-.689-.539-1.656-.757-2.229h3.2a2.23,2.23,0,0,1,0,4.461Z" transform="translate(-180.828 -109.087)"/></g><g transform="translate(225.024 133.044)"><path class="a" d="M369.073,266.583h-7.461a4.222,4.222,0,0,0-2.25,7.794.972.972,0,0,0,.123.067,7.5,7.5,0,0,0,10.608-6.841A1.019,1.019,0,0,0,369.073,266.583Zm-6.489,6.5a5.439,5.439,0,0,1-2.192-.465,2.184,2.184,0,0,1,1.22-4h6.348A5.483,5.483,0,0,1,362.584,273.081Z" transform="translate(-357.379 -266.583)"/></g><g transform="translate(188.687 133.044)"><path class="a" d="M220.7,266.583H213.24a1.019,1.019,0,0,0-1.019,1.019,7.522,7.522,0,0,0,7.508,7.517h0a7.462,7.462,0,0,0,3.1-.676.953.953,0,0,0,.123-.067,4.222,4.222,0,0,0-2.25-7.794Zm1.22,6.034a5.439,5.439,0,0,1-2.192.465h0a5.483,5.483,0,0,1-5.375-4.46H220.7a2.184,2.184,0,0,1,1.22,4Z" transform="translate(-212.221 -266.583)"/></g><g transform="translate(204.378 133.044)"><path class="a" d="M291.443,267.12a1.02,1.02,0,0,0-.9-.537H276.928a1.02,1.02,0,0,0-.9.537l-1.006,1.869a1.019,1.019,0,0,0,.084,1.1l3.482,4.63a1.018,1.018,0,0,0,.814.406h8.666a1.015,1.015,0,0,0,.814-.408l3.482-4.63a1.017,1.017,0,0,0,.083-1.095Zm-3.882,5.963h-7.649l-2.785-3.7.409-.758h12.4l.409.758Z" transform="translate(-274.902 -266.583)"/></g><g transform="translate(234.847 88.452)"><path class="a" d="M406.732,98.566V96.528a8.085,8.085,0,0,1-8.076-8.076h-2.038A10.126,10.126,0,0,0,406.732,98.566Z" transform="translate(-396.618 -88.452)"/></g><g transform="translate(226.531 88.452)"><path class="a" d="M363.4,88.452a18.451,18.451,0,0,0,18.429,18.429v-2.038a16.41,16.41,0,0,1-16.391-16.391Z" transform="translate(-363.4 -88.452)"/></g><g transform="translate(230.689 88.452)"><path class="a" d="M380.007,88.452a14.288,14.288,0,0,0,14.272,14.272v-2.038a12.247,12.247,0,0,1-12.234-12.234Z" transform="translate(-380.007 -88.452)"/></g><g transform="translate(181.773 88.452)"><path class="a" d="M192.681,88.452a8.085,8.085,0,0,1-8.077,8.076v2.038a10.126,10.126,0,0,0,10.115-10.114Z" transform="translate(-184.604 -88.452)"/></g><g transform="translate(181.773 88.452)"><path class="a" d="M184.6,106.881a18.451,18.451,0,0,0,18.43-18.429H201A16.41,16.41,0,0,1,184.6,104.843Z" transform="translate(-184.604 -88.452)"/></g><g transform="translate(181.773 88.452)"><path class="a" d="M184.6,102.724a14.289,14.289,0,0,0,14.272-14.272h-2.038A12.247,12.247,0,0,1,184.6,100.686Z" transform="translate(-184.604 -88.452)"/></g></g></svg>