<svg xmlns="http://www.w3.org/2000/svg" width="15.892" height="15.188" viewBox="0 0 15.892 15.188"><defs><style>.a{fill:#fff;}</style></defs><g transform="translate(0 -9.708)"><g transform="translate(0 9.708)"><rect class="a" width="3.414" height="10.253" transform="translate(0.197 4.935)"/><path class="a" d="M160.919,140.505a3.674,3.674,0,0,0-2.845-1.174,4.1,4.1,0,0,0-1.185.16,2.688,2.688,0,0,0-.9.45,3.854,3.854,0,0,0-.988,1.085v-1.458h-3.4l.01.5q.01.5.01,3.062t-.021,6.694H155V144.1a2.5,2.5,0,0,1,.114-.838,2.2,2.2,0,0,1,.657-.884,1.675,1.675,0,0,1,1.092-.357,1.472,1.472,0,0,1,1.309.616,2.993,2.993,0,0,1,.419,1.7v5.483H162v-5.876A4.926,4.926,0,0,0,160.919,140.505Z" transform="translate(-146.103 -134.634)"/><path class="a" d="M1.924,9.708a1.948,1.948,0,0,0-1.392.5A1.666,1.666,0,0,0,0,11.477a1.7,1.7,0,0,0,.517,1.262,1.867,1.867,0,0,0,1.366.507H1.9a1.949,1.949,0,0,0,1.4-.507,1.638,1.638,0,0,0,.522-1.262A1.726,1.726,0,0,0,3.3,10.21,1.892,1.892,0,0,0,1.924,9.708Z" transform="translate(0 -9.708)"/></g></g></svg>