<svg xmlns="http://www.w3.org/2000/svg" width="137.601" height="69.999" viewBox="0 0 137.601 69.999"><defs><style>.a{fill:#fff;}.b{fill:#129bdb;}</style></defs><g transform="translate(-157.57 -249.534)"><g transform="translate(157.57 277.589)"><path class="a" d="M167.413,273.5a4.668,4.668,0,0,1-.39,1.9,4.865,4.865,0,0,1-1.059,1.541,5.1,5.1,0,0,1-1.569,1.047,4.93,4.93,0,0,1-3.835,0,4.922,4.922,0,0,1-1.556-1.047,4.977,4.977,0,0,1-1.045-1.541,4.815,4.815,0,0,1,0-3.8,4.878,4.878,0,0,1,2.6-2.6,4.93,4.93,0,0,1,3.835,0,5.154,5.154,0,0,1,1.569,1.047,4.849,4.849,0,0,1,1.059,1.556A4.692,4.692,0,0,1,167.413,273.5Zm-1.26,36.526h-7.376V281.3h7.376Z" transform="translate(-157.57 -268.614)"/><path class="a" d="M175.427,309.078h-7.7V270.621h7.7v15.394h15.367V270.621h7.7v38.457h-7.7V293.711H175.427Z" transform="translate(-152.791 -267.67)"/><path class="a" d="M220.944,291.7a15.5,15.5,0,0,1-1.153,5.995,15,15,0,0,1-3.138,4.8A14.663,14.663,0,0,1,212,305.686a14.571,14.571,0,0,1-11.424,0,14.705,14.705,0,0,1-7.818-7.992A15.47,15.47,0,0,1,191.6,291.7a15.7,15.7,0,0,1,1.154-6.061,14.853,14.853,0,0,1,3.151-4.814,14.642,14.642,0,0,1,4.667-3.178,14.2,14.2,0,0,1,5.7-1.153A15.054,15.054,0,0,1,212,277.579a13.851,13.851,0,0,1,4.654,3.085,14.618,14.618,0,0,1,3.138,4.8A16.272,16.272,0,0,1,220.944,291.7Zm-7.376,0a8.518,8.518,0,0,0-.576-3.205,7.621,7.621,0,0,0-1.569-2.467,6.8,6.8,0,0,0-2.32-1.582,7.552,7.552,0,0,0-5.658,0,6.667,6.667,0,0,0-2.307,1.582,7.557,7.557,0,0,0-1.541,2.467,8.7,8.7,0,0,0-.563,3.205,8.285,8.285,0,0,0,.563,3.085,7.723,7.723,0,0,0,1.541,2.466,7.21,7.21,0,0,0,2.307,1.65,6.747,6.747,0,0,0,2.829.6,7.171,7.171,0,0,0,2.829-.563,7.059,7.059,0,0,0,2.32-1.582,7.413,7.413,0,0,0,1.569-2.469A8.527,8.527,0,0,0,213.569,291.7Z" transform="translate(-141.56 -264.907)"/><path class="a" d="M243.251,295a16.015,16.015,0,0,1-1.153,6.168,14.645,14.645,0,0,1-3.139,4.788,14.011,14.011,0,0,1-4.652,3.1,14.9,14.9,0,0,1-5.726,1.1,14.5,14.5,0,0,1-10.366-4.264,14.743,14.743,0,0,1-3.151-4.788,15.739,15.739,0,0,1-1.153-6.1V269.471h7.349v13.41a6.661,6.661,0,0,1,1.434-1.341,8.542,8.542,0,0,1,1.823-.965,11.8,11.8,0,0,1,2.026-.578,10.8,10.8,0,0,1,2.038-.2,14.417,14.417,0,0,1,5.726,1.14,14.223,14.223,0,0,1,4.652,3.177,15.147,15.147,0,0,1,3.139,4.814A15.7,15.7,0,0,1,243.251,295Zm-7.376,0a8.233,8.233,0,0,0-.576-3.1,7.8,7.8,0,0,0-1.569-2.481,7.166,7.166,0,0,0-2.32-1.637,6.9,6.9,0,0,0-2.829-.591,6.286,6.286,0,0,0-2.829.657,7.819,7.819,0,0,0-2.32,1.744,8.135,8.135,0,0,0-1.556,2.494,7.78,7.78,0,0,0-.563,2.91,8.315,8.315,0,0,0,.563,3.085,7.607,7.607,0,0,0,1.556,2.466,7.362,7.362,0,0,0,2.32,1.65,6.923,6.923,0,0,0,5.658,0,7.362,7.362,0,0,0,2.32-1.65,7.842,7.842,0,0,0,1.569-2.466A8.146,8.146,0,0,0,235.876,295Z" transform="translate(-131.067 -268.211)"/></g><path class="b" d="M263.852,272.672a18.854,18.854,0,0,0-.923-4.061,9.2,9.2,0,0,0-1.575-2.164,9.027,9.027,0,0,0-1.566-1.276l-.046-.029-3.541-.453,1.026-2.15.193-2.069a6.63,6.63,0,0,0-.959-1.922,5.5,5.5,0,0,0-1.144-1.2l-.426-2.489-.982-1.356a5.642,5.642,0,0,0-1.156-3.248l-.037-.047-1.482-.678-2.363,1.665-2.16,3.879-1.92,5.21-.831,5.088.348,3.2-.529-.181a.934.934,0,0,0-.157-.012l-.079,0a21.4,21.4,0,0,1-2.275-3.92,21.785,21.785,0,0,1-1.325-3.972l-.022-.1-.282.065-.094.065.024.1a21.836,21.836,0,0,0,3.561,7.865,1.125,1.125,0,0,0-.316.222,1.061,1.061,0,0,0-.179.241,21.8,21.8,0,0,0-7.94-3.422l-.1-.024-.06.284.018.11.1.023a21.445,21.445,0,0,1,7.856,3.42,1.176,1.176,0,0,0,0,.293l.113.425-3.03-.275-5.064.919-5.173,2.006-3.863,2.25-1.589,2.359.69,1.447.037.044.022.016a5.73,5.73,0,0,0,1.407.757,5.188,5.188,0,0,0,1.745.326h.057l1.473,1,2.386.331A6.721,6.721,0,0,0,233,282.4a6.518,6.518,0,0,0,2.007.937l2.031-.249,2.1-1.05.509,3.508.021.049.012.021a9.079,9.079,0,0,0,3.527,3.1,18.749,18.749,0,0,0,4.041.844c.59.056,1.191.085,1.787.085.284,0,.565-.006.845-.019l.178-.009,1.519-6.01-.744-4.908-.843-2.126,1.016.9.321.669.919.787a1.794,1.794,0,0,0,.765.429,1.016,1.016,0,0,0,.25.032.558.558,0,0,0,.413-.156c.241-.263.122-.8-.29-1.284l-1-1.025-.625-.228-1.068-1.156,2.388.9,4.938.654,5.942-1.615,0-.176A18.678,18.678,0,0,0,263.852,272.672Z" transform="translate(31.202 0)"/></g></svg>