<svg xmlns="http://www.w3.org/2000/svg" width="274" height="98.879" viewBox="0 0 274 98.879"><defs><style>.a{fill:#fff;}.b{fill:#129bdb;}</style></defs><g transform="translate(139.642 -252.537)"><g transform="translate(-139.642 285.322)"><path class="a" d="M-129.375,279a4.89,4.89,0,0,1-.406,1.986,5.1,5.1,0,0,1-1.1,1.609,5.332,5.332,0,0,1-1.638,1.09,4.979,4.979,0,0,1-2,.406,4.981,4.981,0,0,1-2-.406,5.161,5.161,0,0,1-1.624-1.09,5.211,5.211,0,0,1-1.089-1.609,4.864,4.864,0,0,1-.406-1.986,4.9,4.9,0,0,1,.406-1.972,5.168,5.168,0,0,1,1.089-1.623,5.187,5.187,0,0,1,1.624-1.09,4.981,4.981,0,0,1,2-.4,4.979,4.979,0,0,1,2,.4,5.36,5.36,0,0,1,1.638,1.09,5.057,5.057,0,0,1,1.1,1.623A4.926,4.926,0,0,1-129.375,279Zm-1.316,38.1h-7.692v-29.96h7.692Z" transform="translate(139.642 -273.913)"/><path class="a" d="M-121.454,316.034h-8.029V275.919h8.029v16.057h16.029V275.919H-97.4v40.115h-8.028V300h-16.029Z" transform="translate(145.064 -272.842)"/><path class="a" d="M-75,297.652a16.137,16.137,0,0,1-1.2,6.253,15.623,15.623,0,0,1-3.273,5.008,15.31,15.31,0,0,1-4.853,3.328,14.745,14.745,0,0,1-5.972,1.218,14.677,14.677,0,0,1-5.945-1.218,15.481,15.481,0,0,1-4.868-3.328,15.556,15.556,0,0,1-3.287-5.008,16.136,16.136,0,0,1-1.2-6.253,16.384,16.384,0,0,1,1.2-6.322,15.535,15.535,0,0,1,3.287-5.021,15.291,15.291,0,0,1,4.868-3.314,14.822,14.822,0,0,1,5.945-1.2,15.7,15.7,0,0,1,5.972,1.132,14.441,14.441,0,0,1,4.853,3.218,15.215,15.215,0,0,1,3.273,5.008A16.937,16.937,0,0,1-75,297.652Zm-7.693,0a8.907,8.907,0,0,0-.6-3.342,7.967,7.967,0,0,0-1.637-2.574,7.073,7.073,0,0,0-2.42-1.65,7.641,7.641,0,0,0-2.951-.574,7.636,7.636,0,0,0-2.951.574,6.932,6.932,0,0,0-2.406,1.65,7.878,7.878,0,0,0-1.609,2.574,9.093,9.093,0,0,0-.587,3.342,8.666,8.666,0,0,0,.587,3.218,8.075,8.075,0,0,0,1.609,2.574,7.544,7.544,0,0,0,2.406,1.721,7.056,7.056,0,0,0,2.951.629,7.459,7.459,0,0,0,2.951-.587,7.34,7.34,0,0,0,2.42-1.65,7.79,7.79,0,0,0,1.637-2.574A8.933,8.933,0,0,0-82.7,297.652Z" transform="translate(157.808 -269.708)"/><path class="a" d="M-52.7,301.4a16.685,16.685,0,0,1-1.2,6.436,15.282,15.282,0,0,1-3.273,4.992,14.632,14.632,0,0,1-4.853,3.232A15.55,15.55,0,0,1-68,317.207a15.111,15.111,0,0,1-5.945-1.176,15,15,0,0,1-4.868-3.271,15.354,15.354,0,0,1-3.287-4.994,16.431,16.431,0,0,1-1.2-6.365V274.77h7.664v13.986a6.957,6.957,0,0,1,1.5-1.4,8.834,8.834,0,0,1,1.9-1.006,12.3,12.3,0,0,1,2.114-.6A11.14,11.14,0,0,1-68,285.54a15.049,15.049,0,0,1,5.972,1.189,14.833,14.833,0,0,1,4.853,3.316,15.788,15.788,0,0,1,3.273,5.02A16.354,16.354,0,0,1-52.7,301.4Zm-7.692,0a8.588,8.588,0,0,0-.6-3.23,8.126,8.126,0,0,0-1.638-2.587,7.492,7.492,0,0,0-2.419-1.707A7.2,7.2,0,0,0-68,293.261a6.557,6.557,0,0,0-2.951.686,8.113,8.113,0,0,0-2.42,1.818,8.5,8.5,0,0,0-1.623,2.6,8.091,8.091,0,0,0-.587,3.035,8.636,8.636,0,0,0,.587,3.218,7.925,7.925,0,0,0,1.623,2.574,7.672,7.672,0,0,0,2.42,1.721,7.056,7.056,0,0,0,2.951.629,7.066,7.066,0,0,0,2.951-.629,7.7,7.7,0,0,0,2.419-1.721,8.147,8.147,0,0,0,1.638-2.574A8.491,8.491,0,0,0-60.39,301.4Z" transform="translate(169.714 -273.456)"/></g><g transform="translate(-41.433 252.537)"><path class="b" d="M-46.488,298.816c-.67,0-1.348-.032-2.011-.1a21.238,21.238,0,0,1-4.545-.949l-.107-.035-.1-.051a11.1,11.1,0,0,1-2.692-1.879,11.117,11.117,0,0,1-1.577-1.87l-.086-.129-.143-.337-.049-.239-.225-1.557-.525.264-2.687.328-.3-.083a8.332,8.332,0,0,1-2.555-1.2A8.46,8.46,0,0,1-65.3,289.96l-2.294-.319-1.469-.992a7.044,7.044,0,0,1-1.911-.416,7.5,7.5,0,0,1-1.85-1l-.143-.1-.268-.305-.126-.227-1.1-2.3,2.345-3.479,4.437-2.583,5.644-2.189,4.158-.755-.086-.037a20.843,20.843,0,0,0-3.841-1.215l-1.035-.219-.27-1.069-.043-.279.041-.391.383-1.8,1.506.33a24.867,24.867,0,0,1,4.621,1.448c.147.063.294.126.44.192-.069-.144-.135-.29-.2-.436a24.451,24.451,0,0,1-1.492-4.456l-.235-1.02.839-.7.241-.166.38-.13,1.8-.411.337,1.5a21.4,21.4,0,0,0,1.308,3.959l.081.178.7-4.308,2.1-5.683,2.482-4.457,3.471-2.443,2.706,1.235.233.314a7.559,7.559,0,0,1,1.054,1.868,7.449,7.449,0,0,1,.462,1.943l.975,1.347.41,2.394a7.731,7.731,0,0,1,1.023,1.163,8.477,8.477,0,0,1,1.219,2.449l.089.291-.253,2.733-.275.575,1.952.25.3.206a10.988,10.988,0,0,1,1.914,1.558,11.043,11.043,0,0,1,1.906,2.62l.054.1.037.109a21.162,21.162,0,0,1,1.038,4.566,21.241,21.241,0,0,1,.124,2.96l-.038,1.322-7.594,2.063-3.1-.409a2.148,2.148,0,0,1-.414,2.117,2.144,2.144,0,0,1-1.563.661,2.561,2.561,0,0,1-.629-.08l-.021,0,.459,3.025-1.942,7.675-1.324.058C-45.853,298.808-46.171,298.816-46.488,298.816Z" transform="translate(76.223 -251.924)"/><path class="a" d="M-43.573,256.058l1.546.706.037.051a5.859,5.859,0,0,1,.814,1.454,5.928,5.928,0,0,1,.393,1.933l1.025,1.414.443,2.6a5.772,5.772,0,0,1,1.195,1.247,6.863,6.863,0,0,1,1,2.006l-.2,2.156-1.072,2.242,3.695.472.046.031a9.416,9.416,0,0,1,1.633,1.331,9.516,9.516,0,0,1,1.643,2.259,19.585,19.585,0,0,1,.965,4.235,19.719,19.719,0,0,1,.113,2.744l0,.184-6.2,1.686-5.152-.684-2.491-.936,1.115,1.206.652.236,1.038,1.071c.429.5.552,1.063.3,1.337a.58.58,0,0,1-.431.164,1.135,1.135,0,0,1-.259-.034,1.893,1.893,0,0,1-.8-.448l-.959-.821-.334-.7-1.058-.937.879,2.218.776,5.118-1.586,6.27-.184.008q-.439.021-.882.02c-.621,0-1.25-.029-1.865-.089a19.63,19.63,0,0,1-4.213-.879,9.526,9.526,0,0,1-2.321-1.62,9.545,9.545,0,0,1-1.359-1.612l-.014-.02-.02-.051-.531-3.661-2.187,1.1-2.12.259a6.851,6.851,0,0,1-2.094-.979,7.05,7.05,0,0,1-1.334-1.212l-2.489-.345-1.535-1.038h-.06a5.366,5.366,0,0,1-1.821-.341,5.978,5.978,0,0,1-1.468-.79l-.023-.017-.038-.046-.721-1.509,1.66-2.46,4.029-2.345,5.4-2.094,5.282-.957,3.161.285-.118-.443a1.142,1.142,0,0,1,0-.3,22.326,22.326,0,0,0-4.072-2.265,22.354,22.354,0,0,0-4.123-1.3l-.107-.023-.018-.117.063-.294.106.023a22.871,22.871,0,0,1,4.241,1.336,22.753,22.753,0,0,1,4.043,2.235,1.068,1.068,0,0,1,.186-.251,1.175,1.175,0,0,1,.331-.233,22.8,22.8,0,0,1-2.317-4.028,22.8,22.8,0,0,1-1.4-4.176l-.025-.107.1-.066.293-.068.025.107a22.6,22.6,0,0,0,1.382,4.141,22.47,22.47,0,0,0,2.371,4.091.823.823,0,0,1,.084,0,1,1,0,0,1,.164.012l.551.189-.362-3.344.867-5.307,2-5.434,2.253-4.046,2.466-1.735m-.327-3.521-1.439,1.012-2.466,1.736-.574.4-.34.612-2.253,4.046-.117.209-.083.224-1.58,4.287-.3-1.359-3.006.689-.294.067-.567.13-.48.328-.1.067-1.713,1.173.454,2.028.023.107c.152.658.328,1.31.529,1.949q-.98-.29-1.983-.5l-.089-.018-3.012-.658-.643,3.015-.063.294-.118.552.086.557.018.117.324,2.084.344.075-4.164,1.615-.225.087-.209.121-4.029,2.347-.607.353-.393.583-1.66,2.46-.98,1.454.755,1.581.721,1.509.172.364.262.307.232.271.327.258a9.108,9.108,0,0,0,2.245,1.212,8.785,8.785,0,0,0,1.91.466l.848.575.59.4.706.1,1.449.2a10.18,10.18,0,0,0,1.044.836,9.825,9.825,0,0,0,3.017,1.413l.592.166.609-.074,1.446-.176.037.253.144.351.117.281.189.305a12.69,12.69,0,0,0,1.813,2.155,12.683,12.683,0,0,0,3.06,2.138l.2.1.215.07a22.771,22.771,0,0,0,4.876,1.017c.71.069,1.437.1,2.156.1q.513,0,1.023-.023l.179-.008,2.279-.1.558-2.21,1.586-6.268.152-.6-.094-.612-.156-1.04a3.571,3.571,0,0,0,1.5-.916l.035-.037.035-.038a3.542,3.542,0,0,0,.794-1.4l1.077.143.612.081.6-.161,6.2-1.686,2.195-.6.066-2.276,0-.182a22.862,22.862,0,0,0-.13-3.173,22.846,22.846,0,0,0-1.115-4.9l-.075-.218-.106-.2a12.613,12.613,0,0,0-2.172-2.982,12.467,12.467,0,0,0-2.163-1.762l-.583-.374-.637-.1.146-1.561.057-.607-.181-.583a10,10,0,0,0-1.442-2.893,9.485,9.485,0,0,0-.836-1.009l-.265-1.555-.121-.706-.42-.58-.535-.738a8.961,8.961,0,0,0-.5-1.91,8.968,8.968,0,0,0-1.239-2.215l-.465-.61-.736-.368-1.548-.707-1.6-.73Z" transform="translate(75.61 -252.537)"/></g><g transform="translate(-138.855 337.255)"><path class="a" d="M-138.894,307.986a.886.886,0,0,1,.621-.213.886.886,0,0,1,.621.213.722.722,0,0,1,.235.558.72.72,0,0,1-.235.56.886.886,0,0,1-.621.213.886.886,0,0,1-.621-.213.72.72,0,0,1-.235-.56A.722.722,0,0,1-138.894,307.986Zm1.242,2.782v7.578h-1.256v-7.578Z" transform="translate(139.129 -307.773)"/><path class="a" d="M-130.723,310.493a3.4,3.4,0,0,1,.814,2.449v4.4h-1.256v-4.293a2.421,2.421,0,0,0-.581-1.741,2.072,2.072,0,0,0-1.572-.607,2.152,2.152,0,0,0-1.656.67,2.774,2.774,0,0,0-.621,1.952v4.018h-1.256v-7.578h1.256v1.793a2.591,2.591,0,0,1,1.028-1.422,2.981,2.981,0,0,1,1.7-.5A2.83,2.83,0,0,1-130.723,310.493Z" transform="translate(140.344 -306.774)"/><path class="a" d="M-122.713,311.368a3.4,3.4,0,0,1,.814,2.449v4.4h-1.256v-4.293a2.428,2.428,0,0,0-.58-1.741,2.078,2.078,0,0,0-1.574-.607,2.152,2.152,0,0,0-1.656.67,2.774,2.774,0,0,0-.621,1.952v4.018h-1.256V308.006h1.256v4.431a2.593,2.593,0,0,1,1.029-1.422,2.975,2.975,0,0,1,1.7-.5A2.829,2.829,0,0,1-122.713,311.368Z" transform="translate(144.62 -307.649)"/><path class="a" d="M-117.536,310.131a3.362,3.362,0,0,1,1.353,1.354,4.2,4.2,0,0,1,.491,2.071,4.159,4.159,0,0,1-.491,2.063,3.359,3.359,0,0,1-1.353,1.345,4.02,4.02,0,0,1-1.954.471,4.018,4.018,0,0,1-1.952-.471,3.415,3.415,0,0,1-1.36-1.345,4.127,4.127,0,0,1-.5-2.063,4.165,4.165,0,0,1,.5-2.071,3.419,3.419,0,0,1,1.36-1.354,4.034,4.034,0,0,1,1.952-.468A4.036,4.036,0,0,1-117.536,310.131Zm-3.2.94a2.272,2.272,0,0,0-.925.931,3.142,3.142,0,0,0-.351,1.554,3.1,3.1,0,0,0,.351,1.538,2.272,2.272,0,0,0,.925.931,2.628,2.628,0,0,0,1.248.3,2.625,2.625,0,0,0,1.25-.3,2.272,2.272,0,0,0,.925-.931,3.1,3.1,0,0,0,.353-1.538,3.141,3.141,0,0,0-.353-1.554,2.272,2.272,0,0,0-.925-.931,2.626,2.626,0,0,0-1.25-.305A2.629,2.629,0,0,0-120.738,311.071Z" transform="translate(147.579 -306.764)"/><path class="a" d="M-111.141,310.493a3.4,3.4,0,0,1,.816,2.449v4.4h-1.256v-4.293a2.421,2.421,0,0,0-.581-1.741,2.072,2.072,0,0,0-1.572-.607,2.152,2.152,0,0,0-1.656.67,2.767,2.767,0,0,0-.621,1.952v4.018h-1.256v-7.578h1.256v1.793a2.591,2.591,0,0,1,1.028-1.422,2.983,2.983,0,0,1,1.706-.5A2.826,2.826,0,0,1-111.141,310.493Z" transform="translate(150.797 -306.774)"/><path class="a" d="M-105.961,310.131a3.362,3.362,0,0,1,1.353,1.354,4.2,4.2,0,0,1,.489,2.071,4.158,4.158,0,0,1-.489,2.063,3.358,3.358,0,0,1-1.353,1.345,4.024,4.024,0,0,1-1.954.471,4.018,4.018,0,0,1-1.952-.471,3.406,3.406,0,0,1-1.36-1.345,4.112,4.112,0,0,1-.5-2.063,4.15,4.15,0,0,1,.5-2.071,3.409,3.409,0,0,1,1.36-1.354,4.034,4.034,0,0,1,1.952-.468A4.04,4.04,0,0,1-105.961,310.131Zm-3.2.94a2.272,2.272,0,0,0-.925.931,3.141,3.141,0,0,0-.353,1.554,3.1,3.1,0,0,0,.353,1.538,2.272,2.272,0,0,0,.925.931,2.623,2.623,0,0,0,1.248.3,2.629,2.629,0,0,0,1.25-.3,2.272,2.272,0,0,0,.925-.931,3.1,3.1,0,0,0,.351-1.538A3.142,3.142,0,0,0-105.74,312a2.272,2.272,0,0,0-.925-.931,2.63,2.63,0,0,0-1.25-.305A2.624,2.624,0,0,0-109.164,311.071Z" transform="translate(153.756 -306.764)"/><path class="a" d="M-103.349,310.079a3.251,3.251,0,0,1,1.713-.434v1.367h-.388a2.684,2.684,0,0,0-1.739.544,2.184,2.184,0,0,0-.676,1.8v3.991h-1.255v-7.578h1.255V311.3A2.79,2.79,0,0,1-103.349,310.079Z" transform="translate(156.975 -306.774)"/><path class="a" d="M-94.5,310.131a3.375,3.375,0,0,1,1.354,1.354,4.2,4.2,0,0,1,.489,2.071,4.158,4.158,0,0,1-.489,2.063,3.372,3.372,0,0,1-1.354,1.345,4.018,4.018,0,0,1-1.952.471,4.018,4.018,0,0,1-1.952-.471,3.405,3.405,0,0,1-1.36-1.345,4.112,4.112,0,0,1-.5-2.063,4.149,4.149,0,0,1,.5-2.071,3.409,3.409,0,0,1,1.36-1.354,4.034,4.034,0,0,1,1.952-.468A4.034,4.034,0,0,1-94.5,310.131Zm-3.2.94a2.263,2.263,0,0,0-.925.931,3.141,3.141,0,0,0-.353,1.554,3.1,3.1,0,0,0,.353,1.538,2.263,2.263,0,0,0,.925.931,2.623,2.623,0,0,0,1.248.3,2.629,2.629,0,0,0,1.25-.3,2.272,2.272,0,0,0,.925-.931,3.121,3.121,0,0,0,.351-1.538A3.158,3.158,0,0,0-94.274,312a2.272,2.272,0,0,0-.925-.931,2.631,2.631,0,0,0-1.25-.305A2.624,2.624,0,0,0-97.7,311.071Z" transform="translate(159.876 -306.764)"/><path class="a" d="M-92,309.286a1.624,1.624,0,0,0-.394,1.242v.209H-90.6v1.1H-92.4v6.475h-1.256V311.84h-1.09v-1.1h1.09v-.305q0-2.717,3.051-2.6v1.106A2.049,2.049,0,0,0-92,309.286Z" transform="translate(162.821 -307.742)"/><path class="a" d="M-82.951,310.131a3.23,3.23,0,0,1,1.235,1.354,4.512,4.512,0,0,1,.449,2.071,4.471,4.471,0,0,1-.449,2.063,3.223,3.223,0,0,1-1.235,1.345,3.436,3.436,0,0,1-1.794.471,3.085,3.085,0,0,1-1.87-.56,2.84,2.84,0,0,1-1.057-1.469v5.52h-1.256V309.76h1.256v1.931a2.84,2.84,0,0,1,1.057-1.469,3.084,3.084,0,0,1,1.87-.558A3.449,3.449,0,0,1-82.951,310.131Zm-3.479.988a2.335,2.335,0,0,0-.925.974,3.113,3.113,0,0,0-.331,1.463,3.078,3.078,0,0,0,.331,1.456,2.39,2.39,0,0,0,.925.974,2.587,2.587,0,0,0,1.325.344,2.454,2.454,0,0,0,1.871-.738,2.852,2.852,0,0,0,.7-2.035,2.856,2.856,0,0,0-.7-2.037,2.454,2.454,0,0,0-1.871-.738A2.629,2.629,0,0,0-86.43,311.118Z" transform="translate(165.924 -306.764)"/><path class="a" d="M-80.515,310.079a3.241,3.241,0,0,1,1.712-.434v1.367h-.387a2.684,2.684,0,0,0-1.739.544,2.184,2.184,0,0,0-.676,1.8v3.991h-1.256v-7.578h1.256V311.3A2.781,2.781,0,0,1-80.515,310.079Z" transform="translate(169.162 -306.774)"/><path class="a" d="M-73.887,310.131a3.375,3.375,0,0,1,1.354,1.354,4.2,4.2,0,0,1,.489,2.071,4.158,4.158,0,0,1-.489,2.063,3.372,3.372,0,0,1-1.354,1.345,4.018,4.018,0,0,1-1.952.471,4.024,4.024,0,0,1-1.954-.471,3.4,3.4,0,0,1-1.359-1.345,4.112,4.112,0,0,1-.5-2.063,4.15,4.15,0,0,1,.5-2.071,3.405,3.405,0,0,1,1.359-1.354,4.04,4.04,0,0,1,1.954-.468A4.034,4.034,0,0,1-73.887,310.131Zm-3.2.94a2.272,2.272,0,0,0-.925.931,3.158,3.158,0,0,0-.351,1.554,3.121,3.121,0,0,0,.351,1.538,2.272,2.272,0,0,0,.925.931,2.634,2.634,0,0,0,1.25.3,2.623,2.623,0,0,0,1.248-.3,2.263,2.263,0,0,0,.925-.931,3.1,3.1,0,0,0,.353-1.538A3.141,3.141,0,0,0-73.666,312a2.263,2.263,0,0,0-.925-.931,2.624,2.624,0,0,0-1.248-.305A2.635,2.635,0,0,0-77.089,311.071Z" transform="translate(170.876 -306.764)"/><path class="a" d="M-71.393,309.286a1.63,1.63,0,0,0-.393,1.242v.209h1.794v1.1h-1.794v6.475h-1.256V311.84h-1.091v-1.1h1.091v-.305q0-2.717,3.051-2.6v1.106A2.051,2.051,0,0,0-71.393,309.286Z" transform="translate(173.821 -307.742)"/><path class="a" d="M-63.5,313.818h-6.06a2.661,2.661,0,0,0,.738,1.946,2.418,2.418,0,0,0,1.706.649,2.47,2.47,0,0,0,1.526-.463,1.919,1.919,0,0,0,.752-1.235H-63.5a3.178,3.178,0,0,1-.615,1.406,3.157,3.157,0,0,1-1.235.966,4.068,4.068,0,0,1-1.712.347,3.9,3.9,0,0,1-1.933-.471,3.307,3.307,0,0,1-1.319-1.345,4.256,4.256,0,0,1-.475-2.063,4.3,4.3,0,0,1,.475-2.071,3.312,3.312,0,0,1,1.319-1.354,3.918,3.918,0,0,1,1.933-.468,3.828,3.828,0,0,1,1.925.468,3.225,3.225,0,0,1,1.256,1.258,3.526,3.526,0,0,1,.436,1.738A3.748,3.748,0,0,1-63.5,313.818Zm-1.491-2.015a2.03,2.03,0,0,0-.87-.844,2.667,2.667,0,0,0-1.2-.275,2.485,2.485,0,0,0-1.739.641,2.586,2.586,0,0,0-.759,1.885h4.845A2.575,2.575,0,0,0-64.986,311.8Z" transform="translate(175.608 -306.764)"/><path class="a" d="M-60.377,310.332a2.814,2.814,0,0,1,.945,1.8h-1.2a1.733,1.733,0,0,0-.558-1.11,1.821,1.821,0,0,0-1.276-.434,1.575,1.575,0,0,0-1.057.324,1.1,1.1,0,0,0-.38.876.905.905,0,0,0,.256.67,1.639,1.639,0,0,0,.635.387,10.632,10.632,0,0,0,1.043.282,10.28,10.28,0,0,1,1.359.394,2.132,2.132,0,0,1,.883.643,1.8,1.8,0,0,1,.365,1.187,1.865,1.865,0,0,1-.7,1.5,2.813,2.813,0,0,1-1.857.58,3.569,3.569,0,0,1-2.209-.649,2.593,2.593,0,0,1-1.006-1.81h1.215a1.578,1.578,0,0,0,.6,1.118,2.165,2.165,0,0,0,1.4.429,1.449,1.449,0,0,0,1.015-.333,1.117,1.117,0,0,0,.365-.87.942.942,0,0,0-.262-.7,1.7,1.7,0,0,0-.649-.4,10.166,10.166,0,0,0-1.061-.29,10.318,10.318,0,0,1-1.347-.386,2.061,2.061,0,0,1-.856-.614,1.722,1.722,0,0,1-.351-1.14,1.9,1.9,0,0,1,.7-1.538,2.9,2.9,0,0,1,1.919-.586A3.056,3.056,0,0,1-60.377,310.332Z" transform="translate(178.625 -306.764)"/><path class="a" d="M-54.753,310.131a3.362,3.362,0,0,1,1.353,1.354,4.2,4.2,0,0,1,.491,2.071,4.159,4.159,0,0,1-.491,2.063,3.359,3.359,0,0,1-1.353,1.345,4.018,4.018,0,0,1-1.952.471,4.024,4.024,0,0,1-1.954-.471,3.4,3.4,0,0,1-1.359-1.345,4.112,4.112,0,0,1-.5-2.063,4.15,4.15,0,0,1,.5-2.071,3.405,3.405,0,0,1,1.359-1.354,4.04,4.04,0,0,1,1.954-.468A4.034,4.034,0,0,1-54.753,310.131Zm-3.2.94a2.272,2.272,0,0,0-.925.931,3.142,3.142,0,0,0-.351,1.554,3.1,3.1,0,0,0,.351,1.538,2.272,2.272,0,0,0,.925.931,2.629,2.629,0,0,0,1.25.3,2.623,2.623,0,0,0,1.248-.3,2.272,2.272,0,0,0,.925-.931,3.1,3.1,0,0,0,.353-1.538A3.141,3.141,0,0,0-54.532,312a2.272,2.272,0,0,0-.925-.931,2.624,2.624,0,0,0-1.248-.305A2.63,2.63,0,0,0-57.955,311.071Z" transform="translate(181.089 -306.764)"/><path class="a" d="M-52.14,310.079a3.247,3.247,0,0,1,1.713-.434v1.367h-.388a2.684,2.684,0,0,0-1.739.544,2.184,2.184,0,0,0-.676,1.8v3.991h-1.255v-7.578h1.255V311.3A2.79,2.79,0,0,1-52.14,310.079Z" transform="translate(184.308 -306.774)"/><path class="a" d="M-42.6,313.872a2.338,2.338,0,0,1,.56,1.56,2.425,2.425,0,0,1-.808,1.9,3.412,3.412,0,0,1-2.339.718h-3.617v-9.733h3.561a3.33,3.33,0,0,1,2.222.65,2.219,2.219,0,0,1,.758,1.779,2.226,2.226,0,0,1-.5,1.518,2.264,2.264,0,0,1-1.29.745A2.548,2.548,0,0,1-42.6,313.872Zm-4.948-1.285h2.1a2.086,2.086,0,0,0,1.414-.426,1.51,1.51,0,0,0,.491-1.2,1.488,1.488,0,0,0-.483-1.175,2.177,2.177,0,0,0-1.477-.426H-47.55Zm3.664,3.962a1.58,1.58,0,0,0,.546-1.282,1.569,1.569,0,0,0-.56-1.278,2.369,2.369,0,0,0-1.552-.463h-2.1V317h2.124A2.335,2.335,0,0,0-43.886,316.548Z" transform="translate(187.339 -307.48)"/><path class="a" d="M-37.85,310.131a3.372,3.372,0,0,1,1.353,1.354,4.2,4.2,0,0,1,.489,2.071,4.158,4.158,0,0,1-.489,2.063,3.368,3.368,0,0,1-1.353,1.345,4.024,4.024,0,0,1-1.954.471,4.018,4.018,0,0,1-1.952-.471,3.405,3.405,0,0,1-1.36-1.345,4.112,4.112,0,0,1-.5-2.063,4.15,4.15,0,0,1,.5-2.071,3.409,3.409,0,0,1,1.36-1.354,4.034,4.034,0,0,1,1.952-.468A4.04,4.04,0,0,1-37.85,310.131Zm-3.2.94a2.263,2.263,0,0,0-.925.931,3.141,3.141,0,0,0-.353,1.554,3.1,3.1,0,0,0,.353,1.538,2.263,2.263,0,0,0,.925.931,2.623,2.623,0,0,0,1.248.3,2.634,2.634,0,0,0,1.25-.3,2.272,2.272,0,0,0,.925-.931,3.121,3.121,0,0,0,.351-1.538A3.158,3.158,0,0,0-37.629,312a2.272,2.272,0,0,0-.925-.931,2.635,2.635,0,0,0-1.25-.305A2.624,2.624,0,0,0-41.053,311.071Z" transform="translate(190.11 -306.764)"/><path class="a" d="M-36.328,308.006v10.216h-1.255V308.006Z" transform="translate(193.329 -307.649)"/><path class="a" d="M-28.406,313.818h-6.06a2.667,2.667,0,0,0,.738,1.946,2.421,2.421,0,0,0,1.706.649,2.466,2.466,0,0,0,1.526-.463,1.919,1.919,0,0,0,.752-1.235h1.339a3.176,3.176,0,0,1-.614,1.406,3.162,3.162,0,0,1-1.236.966,4.068,4.068,0,0,1-1.712.347,3.9,3.9,0,0,1-1.933-.471,3.3,3.3,0,0,1-1.317-1.345,4.256,4.256,0,0,1-.477-2.063,4.3,4.3,0,0,1,.477-2.071,3.308,3.308,0,0,1,1.317-1.354,3.918,3.918,0,0,1,1.933-.468,3.833,3.833,0,0,1,1.926.468,3.211,3.211,0,0,1,1.255,1.258,3.526,3.526,0,0,1,.436,1.738A3.747,3.747,0,0,1-28.406,313.818ZM-29.9,311.8a2.013,2.013,0,0,0-.87-.844,2.667,2.667,0,0,0-1.2-.275,2.485,2.485,0,0,0-1.739.641,2.586,2.586,0,0,0-.759,1.885h4.845A2.575,2.575,0,0,0-29.9,311.8Z" transform="translate(194.338 -306.764)"/><path class="a" d="M-25.286,310.332a2.814,2.814,0,0,1,.945,1.8h-1.2a1.74,1.74,0,0,0-.558-1.11,1.822,1.822,0,0,0-1.278-.434,1.573,1.573,0,0,0-1.055.324,1.1,1.1,0,0,0-.38.876.905.905,0,0,0,.256.67,1.639,1.639,0,0,0,.635.387,10.513,10.513,0,0,0,1.043.282,10.281,10.281,0,0,1,1.359.394,2.132,2.132,0,0,1,.883.643,1.8,1.8,0,0,1,.365,1.187,1.865,1.865,0,0,1-.7,1.5,2.813,2.813,0,0,1-1.857.58,3.566,3.566,0,0,1-2.209-.649,2.594,2.594,0,0,1-1.008-1.81h1.216a1.572,1.572,0,0,0,.6,1.118,2.165,2.165,0,0,0,1.4.429,1.452,1.452,0,0,0,1.015-.333,1.117,1.117,0,0,0,.365-.87.948.948,0,0,0-.262-.7,1.722,1.722,0,0,0-.649-.4,10.213,10.213,0,0,0-1.063-.29,10.357,10.357,0,0,1-1.345-.386,2.061,2.061,0,0,1-.856-.614,1.722,1.722,0,0,1-.353-1.14,1.9,1.9,0,0,1,.7-1.538,2.905,2.905,0,0,1,1.919-.586A3.06,3.06,0,0,1-25.286,310.332Z" transform="translate(197.354 -306.764)"/><path class="a" d="M-22.326,311.94l-1.077.457v5.825h-1.27v-5.3l-1.077.456v-1.227l1.077-.456v-3.687h1.27v3.161l1.077-.456Z" transform="translate(199.646 -307.649)"/><path class="a" d="M-17.663,310.215a2.872,2.872,0,0,1,1.069,1.475V309.76h1.256v7.578h-1.256v-1.932a2.883,2.883,0,0,1-1.069,1.477,3.127,3.127,0,0,1-1.871.552,3.436,3.436,0,0,1-1.794-.471,3.233,3.233,0,0,1-1.235-1.345,4.451,4.451,0,0,1-.449-2.063,4.493,4.493,0,0,1,.449-2.071,3.24,3.24,0,0,1,1.235-1.354,3.449,3.449,0,0,1,1.794-.468A3.116,3.116,0,0,1-17.663,310.215Zm-3.368,1.3a2.85,2.85,0,0,0-.7,2.037,2.846,2.846,0,0,0,.7,2.035,2.431,2.431,0,0,0,1.856.738,2.58,2.58,0,0,0,1.333-.344,2.4,2.4,0,0,0,.917-.974,3.077,3.077,0,0,0,.331-1.456,3.113,3.113,0,0,0-.331-1.463,2.346,2.346,0,0,0-.917-.974,2.621,2.621,0,0,0-1.333-.337A2.431,2.431,0,0,0-21.031,311.519Z" transform="translate(201.106 -306.764)"/><path class="a" d="M-6.008,309.726-8.189,317.3H-9.542l-2.084-6.17-2.1,6.17h-1.367l-2.153-7.578h1.27l1.615,6.376,2.1-6.376h1.311l2.112,6.362,1.629-6.362Z" transform="translate(204.185 -306.731)"/><path class="a" d="M-1.955,308.321v7.235a2.587,2.587,0,0,1-.684,1.9,2.551,2.551,0,0,1-1.911.7,2.753,2.753,0,0,1-2.078-.781,3.028,3.028,0,0,1-.752-2.189h1.256a2.149,2.149,0,0,0,.373,1.333A1.347,1.347,0,0,0-4.605,317a1.276,1.276,0,0,0,1.063-.414,1.6,1.6,0,0,0,.331-1.034v-7.235Z" transform="translate(209.45 -307.48)"/><path class="a" d="M2.531,310.215A2.875,2.875,0,0,1,3.6,311.691V309.76H4.858v7.578H3.6v-1.932a2.885,2.885,0,0,1-1.071,1.477,3.122,3.122,0,0,1-1.87.552,3.436,3.436,0,0,1-1.794-.471,3.223,3.223,0,0,1-1.235-1.345,4.451,4.451,0,0,1-.449-2.063,4.493,4.493,0,0,1,.449-2.071,3.23,3.23,0,0,1,1.235-1.354,3.449,3.449,0,0,1,1.794-.468A3.111,3.111,0,0,1,2.531,310.215Zm-3.367,1.3a3.319,3.319,0,0,0,0,4.072,2.428,2.428,0,0,0,1.856.738,2.583,2.583,0,0,0,1.333-.344,2.4,2.4,0,0,0,.917-.974,3.077,3.077,0,0,0,.331-1.456,3.113,3.113,0,0,0-.331-1.463,2.346,2.346,0,0,0-.917-.974,2.625,2.625,0,0,0-1.333-.337A2.428,2.428,0,0,0-.835,311.519Z" transform="translate(211.886 -306.764)"/><path class="a" d="M9.621,310.493a3.4,3.4,0,0,1,.814,2.449v4.4H9.179v-4.293a2.428,2.428,0,0,0-.58-1.741,2.078,2.078,0,0,0-1.574-.607,2.152,2.152,0,0,0-1.656.67,2.774,2.774,0,0,0-.621,1.952v4.018H3.492v-7.578H4.748v1.793a2.6,2.6,0,0,1,1.028-1.422,2.983,2.983,0,0,1,1.706-.5A2.829,2.829,0,0,1,9.621,310.493Z" transform="translate(215.253 -306.774)"/><path class="a" d="M13.434,318.222l-2.9-3.411v3.411H9.279V308.006h1.256v5.937l2.856-3.3h1.532l-3.394,3.768,3.479,3.81Z" transform="translate(218.342 -307.649)"/><path class="a" d="M19.253,310.131a3.362,3.362,0,0,1,1.353,1.354,4.6,4.6,0,0,1,0,4.133,3.358,3.358,0,0,1-1.353,1.345,4.287,4.287,0,0,1-3.906,0,3.4,3.4,0,0,1-1.359-1.345,4.546,4.546,0,0,1,0-4.133,3.405,3.405,0,0,1,1.359-1.354,4.312,4.312,0,0,1,3.906,0Zm-3.2.94a2.272,2.272,0,0,0-.925.931,3.142,3.142,0,0,0-.351,1.554,3.1,3.1,0,0,0,.351,1.538,2.272,2.272,0,0,0,.925.931,2.721,2.721,0,0,0,2.5,0,2.272,2.272,0,0,0,.925-.931,3.1,3.1,0,0,0,.353-1.538A3.141,3.141,0,0,0,19.474,312a2.272,2.272,0,0,0-.925-.931,2.709,2.709,0,0,0-2.5,0Z" transform="translate(220.59 -306.764)"/><path class="a" d="M30.217,309.726,28.036,317.3H26.683l-2.084-6.17-2.1,6.17H21.134l-2.153-7.578h1.27l1.615,6.376,2.1-6.376h1.311l2.112,6.362,1.629-6.362Z" transform="translate(223.52 -306.731)"/><path class="a" d="M27.163,307.986a1.012,1.012,0,0,1,1.242,0,.787.787,0,0,1,0,1.118,1.011,1.011,0,0,1-1.242,0,.783.783,0,0,1,0-1.118Zm1.242,2.782v7.578H27.149v-7.578Z" transform="translate(227.762 -307.773)"/><path class="a" d="M34.311,310.215a2.872,2.872,0,0,1,1.069,1.475V309.76h1.256v7.578H35.38v-1.932a2.883,2.883,0,0,1-1.069,1.477,3.125,3.125,0,0,1-1.87.552,3.432,3.432,0,0,1-1.794-.471,3.227,3.227,0,0,1-1.236-1.345,4.977,4.977,0,0,1,0-4.133,3.233,3.233,0,0,1,1.236-1.354,3.445,3.445,0,0,1,1.794-.468A3.115,3.115,0,0,1,34.311,310.215Zm-3.368,1.3a3.319,3.319,0,0,0,0,4.072,2.431,2.431,0,0,0,1.856.738,2.576,2.576,0,0,0,1.333-.344,2.4,2.4,0,0,0,.917-.974,3.077,3.077,0,0,0,.331-1.456,3.113,3.113,0,0,0-.331-1.463,2.346,2.346,0,0,0-.917-.974,2.617,2.617,0,0,0-1.333-.337A2.431,2.431,0,0,0,30.943,311.519Z" transform="translate(228.847 -306.764)"/><path class="a" d="M39.426,318.222l-2.9-3.411v3.411H35.27V308.006h1.256v5.937l2.857-3.3h1.532l-3.4,3.768L41,318.222Z" transform="translate(232.215 -307.649)"/></g></g></svg>