<svg xmlns="http://www.w3.org/2000/svg" width="206" height="206" viewBox="0 0 206 206"><defs><style>.a{fill:#333;opacity:0.147;}</style></defs><path class="a" d="M196.636,201.318A4.682,4.682,0,1,1,201.318,206,4.682,4.682,0,0,1,196.636,201.318Zm-28.091,0A4.682,4.682,0,1,1,173.226,206,4.682,4.682,0,0,1,168.545,201.318Zm-28.091,0A4.682,4.682,0,1,1,145.136,206,4.682,4.682,0,0,1,140.454,201.318Zm-28.09,0A4.682,4.682,0,1,1,117.045,206,4.682,4.682,0,0,1,112.364,201.318Zm-28.091,0A4.682,4.682,0,1,1,88.954,206,4.682,4.682,0,0,1,84.273,201.318Zm-28.091,0A4.682,4.682,0,1,1,60.864,206,4.682,4.682,0,0,1,56.181,201.318Zm-28.09,0A4.682,4.682,0,1,1,32.773,206,4.682,4.682,0,0,1,28.091,201.318ZM0,201.318A4.682,4.682,0,1,1,4.681,206,4.682,4.682,0,0,1,0,201.318Zm196.636-28.091a4.682,4.682,0,1,1,4.681,4.682A4.682,4.682,0,0,1,196.636,173.226Zm-28.091,0a4.682,4.682,0,1,1,4.681,4.682A4.682,4.682,0,0,1,168.545,173.226Zm-28.091,0a4.682,4.682,0,1,1,4.682,4.682A4.682,4.682,0,0,1,140.454,173.226Zm-28.09,0a4.682,4.682,0,1,1,4.681,4.682A4.682,4.682,0,0,1,112.364,173.226Zm-28.091,0a4.682,4.682,0,1,1,4.681,4.682A4.682,4.682,0,0,1,84.273,173.226Zm-28.091,0a4.682,4.682,0,1,1,4.682,4.682A4.682,4.682,0,0,1,56.181,173.226Zm-28.09,0a4.682,4.682,0,1,1,4.681,4.682A4.682,4.682,0,0,1,28.091,173.226ZM0,173.226a4.682,4.682,0,1,1,4.681,4.682A4.682,4.682,0,0,1,0,173.226Zm196.636-28.09a4.682,4.682,0,1,1,4.681,4.681A4.682,4.682,0,0,1,196.636,145.136Zm-28.091,0a4.682,4.682,0,1,1,4.681,4.681A4.682,4.682,0,0,1,168.545,145.136Zm-28.091,0a4.682,4.682,0,1,1,4.682,4.681A4.682,4.682,0,0,1,140.454,145.136Zm-28.09,0a4.682,4.682,0,1,1,4.681,4.681A4.682,4.682,0,0,1,112.364,145.136Zm-28.091,0a4.682,4.682,0,1,1,4.681,4.681A4.682,4.682,0,0,1,84.273,145.136Zm-28.091,0a4.682,4.682,0,1,1,4.682,4.681A4.682,4.682,0,0,1,56.181,145.136Zm-28.09,0a4.682,4.682,0,1,1,4.681,4.681A4.682,4.682,0,0,1,28.091,145.136ZM0,145.136a4.682,4.682,0,1,1,4.681,4.681A4.682,4.682,0,0,1,0,145.136Zm196.636-28.091a4.682,4.682,0,1,1,4.681,4.682A4.682,4.682,0,0,1,196.636,117.045Zm-28.091,0a4.682,4.682,0,1,1,4.681,4.682A4.682,4.682,0,0,1,168.545,117.045Zm-28.091,0a4.682,4.682,0,1,1,4.682,4.682A4.682,4.682,0,0,1,140.454,117.045Zm-28.09,0a4.682,4.682,0,1,1,4.681,4.682A4.682,4.682,0,0,1,112.364,117.045Zm-28.091,0a4.682,4.682,0,1,1,4.681,4.682A4.682,4.682,0,0,1,84.273,117.045Zm-28.091,0a4.682,4.682,0,1,1,4.682,4.682A4.682,4.682,0,0,1,56.181,117.045Zm-28.09,0a4.682,4.682,0,1,1,4.681,4.682A4.682,4.682,0,0,1,28.091,117.045ZM0,117.045a4.682,4.682,0,1,1,4.681,4.682A4.682,4.682,0,0,1,0,117.045ZM196.636,88.954a4.682,4.682,0,1,1,4.681,4.682A4.682,4.682,0,0,1,196.636,88.954Zm-28.091,0a4.682,4.682,0,1,1,4.681,4.682A4.682,4.682,0,0,1,168.545,88.954Zm-28.091,0a4.682,4.682,0,1,1,4.682,4.682A4.682,4.682,0,0,1,140.454,88.954Zm-28.09,0a4.682,4.682,0,1,1,4.681,4.682A4.682,4.682,0,0,1,112.364,88.954Zm-28.091,0a4.682,4.682,0,1,1,4.681,4.682A4.682,4.682,0,0,1,84.273,88.954Zm-28.091,0a4.682,4.682,0,1,1,4.682,4.682A4.682,4.682,0,0,1,56.181,88.954Zm-28.09,0a4.682,4.682,0,1,1,4.681,4.682A4.682,4.682,0,0,1,28.091,88.954ZM0,88.954a4.682,4.682,0,1,1,4.681,4.682A4.682,4.682,0,0,1,0,88.954Zm196.636-28.09a4.682,4.682,0,1,1,4.681,4.681A4.682,4.682,0,0,1,196.636,60.864Zm-28.091,0a4.682,4.682,0,1,1,4.681,4.681A4.682,4.682,0,0,1,168.545,60.864Zm-28.091,0a4.682,4.682,0,1,1,4.682,4.681A4.682,4.682,0,0,1,140.454,60.864Zm-28.09,0a4.682,4.682,0,1,1,4.681,4.681A4.682,4.682,0,0,1,112.364,60.864Zm-28.091,0a4.682,4.682,0,1,1,4.681,4.681A4.682,4.682,0,0,1,84.273,60.864Zm-28.091,0a4.682,4.682,0,1,1,4.682,4.681A4.682,4.682,0,0,1,56.181,60.864Zm-28.09,0a4.682,4.682,0,1,1,4.681,4.681A4.682,4.682,0,0,1,28.091,60.864ZM0,60.864a4.682,4.682,0,1,1,4.681,4.681A4.682,4.682,0,0,1,0,60.864ZM196.636,32.773a4.682,4.682,0,1,1,4.681,4.682A4.682,4.682,0,0,1,196.636,32.773Zm-28.091,0a4.682,4.682,0,1,1,4.681,4.682A4.682,4.682,0,0,1,168.545,32.773Zm-28.091,0a4.682,4.682,0,1,1,4.682,4.682A4.682,4.682,0,0,1,140.454,32.773Zm-28.09,0a4.682,4.682,0,1,1,4.681,4.682A4.682,4.682,0,0,1,112.364,32.773Zm-28.091,0a4.682,4.682,0,1,1,4.681,4.682A4.682,4.682,0,0,1,84.273,32.773Zm-28.091,0a4.682,4.682,0,1,1,4.682,4.682A4.682,4.682,0,0,1,56.181,32.773Zm-28.09,0a4.682,4.682,0,1,1,4.681,4.682A4.682,4.682,0,0,1,28.091,32.773ZM0,32.773a4.682,4.682,0,1,1,4.681,4.682A4.682,4.682,0,0,1,0,32.773ZM196.636,4.681a4.682,4.682,0,1,1,4.681,4.682A4.682,4.682,0,0,1,196.636,4.681Zm-28.091,0a4.682,4.682,0,1,1,4.681,4.682A4.682,4.682,0,0,1,168.545,4.681Zm-28.091,0a4.682,4.682,0,1,1,4.682,4.682A4.682,4.682,0,0,1,140.454,4.681Zm-28.09,0a4.682,4.682,0,1,1,4.681,4.682A4.682,4.682,0,0,1,112.364,4.681Zm-28.091,0a4.682,4.682,0,1,1,4.681,4.682A4.682,4.682,0,0,1,84.273,4.681Zm-28.091,0a4.682,4.682,0,1,1,4.682,4.682A4.682,4.682,0,0,1,56.181,4.681Zm-28.09,0a4.682,4.682,0,1,1,4.681,4.682A4.682,4.682,0,0,1,28.091,4.681ZM0,4.681A4.682,4.682,0,1,1,4.681,9.364,4.682,4.682,0,0,1,0,4.681Z"/></svg>