<svg xmlns="http://www.w3.org/2000/svg" width="294" height="294" viewBox="0 0 294 294"><defs><style>.a{fill:#333;opacity:0.147;}</style></defs><path class="a" d="M280.637,287.318A6.682,6.682,0,1,1,287.318,294,6.682,6.682,0,0,1,280.637,287.318Zm-40.091,0A6.682,6.682,0,1,1,247.226,294,6.682,6.682,0,0,1,240.545,287.318Zm-40.091,0A6.682,6.682,0,1,1,207.137,294,6.682,6.682,0,0,1,200.454,287.318Zm-40.09,0A6.682,6.682,0,1,1,167.045,294,6.682,6.682,0,0,1,160.364,287.318Zm-40.091,0A6.682,6.682,0,1,1,126.954,294,6.682,6.682,0,0,1,120.273,287.318Zm-40.091,0A6.682,6.682,0,1,1,86.864,294,6.682,6.682,0,0,1,80.181,287.318Zm-40.09,0A6.682,6.682,0,1,1,46.773,294,6.682,6.682,0,0,1,40.091,287.318ZM0,287.318A6.682,6.682,0,1,1,6.681,294,6.682,6.682,0,0,1,0,287.318Zm280.637-40.091a6.682,6.682,0,1,1,6.681,6.683A6.682,6.682,0,0,1,280.637,247.226Zm-40.091,0a6.682,6.682,0,1,1,6.681,6.683A6.682,6.682,0,0,1,240.545,247.226Zm-40.091,0a6.682,6.682,0,1,1,6.683,6.683A6.682,6.682,0,0,1,200.454,247.226Zm-40.09,0a6.682,6.682,0,1,1,6.681,6.683A6.682,6.682,0,0,1,160.364,247.226Zm-40.091,0a6.682,6.682,0,1,1,6.681,6.683A6.682,6.682,0,0,1,120.273,247.226Zm-40.091,0a6.682,6.682,0,1,1,6.683,6.683A6.682,6.682,0,0,1,80.181,247.226Zm-40.09,0a6.682,6.682,0,1,1,6.681,6.683A6.682,6.682,0,0,1,40.091,247.226ZM0,247.226a6.682,6.682,0,1,1,6.681,6.683A6.682,6.682,0,0,1,0,247.226Zm280.637-40.09a6.682,6.682,0,1,1,6.681,6.681A6.682,6.682,0,0,1,280.637,207.137Zm-40.091,0a6.682,6.682,0,1,1,6.681,6.681A6.682,6.682,0,0,1,240.545,207.137Zm-40.091,0a6.682,6.682,0,1,1,6.683,6.681A6.682,6.682,0,0,1,200.454,207.137Zm-40.09,0a6.682,6.682,0,1,1,6.681,6.681A6.682,6.682,0,0,1,160.364,207.137Zm-40.091,0a6.682,6.682,0,1,1,6.681,6.681A6.682,6.682,0,0,1,120.273,207.137Zm-40.091,0a6.682,6.682,0,1,1,6.683,6.681A6.682,6.682,0,0,1,80.181,207.137Zm-40.09,0a6.682,6.682,0,1,1,6.681,6.681A6.682,6.682,0,0,1,40.091,207.137ZM0,207.137a6.682,6.682,0,1,1,6.681,6.681A6.682,6.682,0,0,1,0,207.137Zm280.637-40.091a6.682,6.682,0,1,1,6.681,6.683A6.682,6.682,0,0,1,280.637,167.045Zm-40.091,0a6.682,6.682,0,1,1,6.681,6.683A6.682,6.682,0,0,1,240.545,167.045Zm-40.091,0a6.682,6.682,0,1,1,6.683,6.683A6.682,6.682,0,0,1,200.454,167.045Zm-40.09,0a6.682,6.682,0,1,1,6.681,6.683A6.682,6.682,0,0,1,160.364,167.045Zm-40.091,0a6.682,6.682,0,1,1,6.681,6.683A6.682,6.682,0,0,1,120.273,167.045Zm-40.091,0a6.682,6.682,0,1,1,6.683,6.683A6.682,6.682,0,0,1,80.181,167.045Zm-40.09,0a6.682,6.682,0,1,1,6.681,6.683A6.682,6.682,0,0,1,40.091,167.045ZM0,167.045a6.682,6.682,0,1,1,6.681,6.683A6.682,6.682,0,0,1,0,167.045Zm280.637-40.091a6.682,6.682,0,1,1,6.681,6.683A6.682,6.682,0,0,1,280.637,126.954Zm-40.091,0a6.682,6.682,0,1,1,6.681,6.683A6.682,6.682,0,0,1,240.545,126.954Zm-40.091,0a6.682,6.682,0,1,1,6.683,6.683A6.682,6.682,0,0,1,200.454,126.954Zm-40.09,0a6.682,6.682,0,1,1,6.681,6.683A6.682,6.682,0,0,1,160.364,126.954Zm-40.091,0a6.682,6.682,0,1,1,6.681,6.683A6.682,6.682,0,0,1,120.273,126.954Zm-40.091,0a6.682,6.682,0,1,1,6.683,6.683A6.682,6.682,0,0,1,80.181,126.954Zm-40.09,0a6.682,6.682,0,1,1,6.681,6.683A6.682,6.682,0,0,1,40.091,126.954ZM0,126.954a6.682,6.682,0,1,1,6.681,6.683A6.682,6.682,0,0,1,0,126.954Zm280.637-40.09a6.682,6.682,0,1,1,6.681,6.681A6.682,6.682,0,0,1,280.637,86.864Zm-40.091,0a6.682,6.682,0,1,1,6.681,6.681A6.682,6.682,0,0,1,240.545,86.864Zm-40.091,0a6.682,6.682,0,1,1,6.683,6.681A6.682,6.682,0,0,1,200.454,86.864Zm-40.09,0a6.682,6.682,0,1,1,6.681,6.681A6.682,6.682,0,0,1,160.364,86.864Zm-40.091,0a6.682,6.682,0,1,1,6.681,6.681A6.682,6.682,0,0,1,120.273,86.864Zm-40.091,0a6.682,6.682,0,1,1,6.683,6.681A6.682,6.682,0,0,1,80.181,86.864Zm-40.09,0a6.682,6.682,0,1,1,6.681,6.681A6.682,6.682,0,0,1,40.091,86.864ZM0,86.864a6.682,6.682,0,1,1,6.681,6.681A6.682,6.682,0,0,1,0,86.864ZM280.637,46.773a6.682,6.682,0,1,1,6.681,6.683A6.682,6.682,0,0,1,280.637,46.773Zm-40.091,0a6.682,6.682,0,1,1,6.681,6.683A6.682,6.682,0,0,1,240.545,46.773Zm-40.091,0a6.682,6.682,0,1,1,6.683,6.683A6.682,6.682,0,0,1,200.454,46.773Zm-40.09,0a6.682,6.682,0,1,1,6.681,6.683A6.682,6.682,0,0,1,160.364,46.773Zm-40.091,0a6.682,6.682,0,1,1,6.681,6.683A6.682,6.682,0,0,1,120.273,46.773Zm-40.091,0a6.682,6.682,0,1,1,6.683,6.683A6.682,6.682,0,0,1,80.181,46.773Zm-40.09,0a6.682,6.682,0,1,1,6.681,6.683A6.682,6.682,0,0,1,40.091,46.773ZM0,46.773a6.682,6.682,0,1,1,6.681,6.683A6.682,6.682,0,0,1,0,46.773ZM280.637,6.681a6.682,6.682,0,1,1,6.681,6.683A6.682,6.682,0,0,1,280.637,6.681Zm-40.091,0a6.682,6.682,0,1,1,6.681,6.683A6.682,6.682,0,0,1,240.545,6.681Zm-40.091,0a6.682,6.682,0,1,1,6.683,6.683A6.682,6.682,0,0,1,200.454,6.681Zm-40.09,0a6.682,6.682,0,1,1,6.681,6.683A6.682,6.682,0,0,1,160.364,6.681Zm-40.091,0a6.682,6.682,0,1,1,6.681,6.683A6.682,6.682,0,0,1,120.273,6.681Zm-40.091,0a6.682,6.682,0,1,1,6.683,6.683A6.682,6.682,0,0,1,80.181,6.681Zm-40.09,0a6.682,6.682,0,1,1,6.681,6.683A6.682,6.682,0,0,1,40.091,6.681ZM0,6.681a6.682,6.682,0,1,1,6.681,6.683A6.682,6.682,0,0,1,0,6.681Z"/></svg>